# xmcd
#
# Track frame offsets: 
#        150
#        14410
#        31950
#        50190
#        63387
#
# Disc length: 1123 seconds
#
# Revision: 0
# Processed by: cddbd v1.5.2PL0 Copyright (c) Steve Scherf et al.
# Submitted via: ExactAudioCopy v0.99pb5
#
DISCID=40046105
DTITLE=The Bluebirds - The Bluebirds
DYEAR=1997
DGENRE=Blues
TTITLE0=Lady Luck
TTITLE1=Double Means trouble
TTITLE2=Dreamer
TTITLE3=Walkin' On  Thrills
TTITLE4=Hearts And Souls
EXTD=
EXTT0=
EXTT1=
EXTT2=
EXTT3=
EXTT4=
PLAYORDER=
